<svg width="945" height="156" viewBox="0 0 945 156" fill="none" xmlns="http://www.w3.org/2000/svg">
<path d="M145.865 101.575L138.552 57.7639C137.245 49.789 133.141 42.5401 126.976 37.3154C120.81 32.0907 112.986 29.2315 104.905 29.25H51.0949C43.0152 29.2339 35.1936 32.0941 29.0303 37.3185C22.8671 42.543 18.7646 49.7907 17.4574 57.7639L10.1449 101.575C9.31596 106.542 10.2465 111.642 12.776 115.996C15.3055 120.35 19.2753 123.684 24.0004 125.424C28.7256 127.164 33.9097 127.199 38.6586 125.525C43.4074 123.851 47.423 120.572 50.0126 116.254L58.3294 102.375H97.6706L105.997 116.254C108.587 120.572 112.602 123.851 117.351 125.525C122.1 127.199 127.284 127.164 132.009 125.424C136.734 123.684 140.704 120.35 143.234 115.996C145.763 111.642 146.694 106.542 145.865 101.575ZM133.594 112.788C132.375 114.227 130.829 115.355 129.086 116.078C127.344 116.801 125.453 117.098 123.573 116.945C121.692 116.791 119.875 116.192 118.273 115.196C116.67 114.2 115.328 112.836 114.358 111.218L104.608 94.9747C104.172 94.2557 103.558 93.6614 102.825 93.2497C102.093 92.838 101.266 92.6228 100.425 92.625H55.575C54.7338 92.6252 53.9069 92.843 53.1748 93.2573C52.4428 93.6716 51.8303 94.2683 51.3971 94.9894L41.6471 111.233C40.2252 113.603 38.0206 115.403 35.4135 116.322C32.8064 117.241 29.9603 117.222 27.3662 116.267C24.7722 115.311 22.5927 113.481 21.2038 111.091C19.8149 108.701 19.3037 105.901 19.7584 103.174L27.0709 59.3677C28.005 53.6732 30.9351 48.497 35.3367 44.7653C39.7383 41.0335 45.3242 38.9899 51.0949 39H104.905C110.679 38.9852 116.27 41.0268 120.675 44.7589C125.081 48.4911 128.014 53.6699 128.949 59.3677L136.261 103.174C136.542 104.878 136.447 106.623 135.983 108.286C135.519 109.949 134.697 111.491 133.575 112.803L133.594 112.788Z" fill="#E47300"/>
<path d="M63.375 63.375H58.5V58.5C58.5 57.2071 57.9864 55.9671 57.0721 55.0529C56.1579 54.1386 54.9179 53.625 53.625 53.625C52.3321 53.625 51.0921 54.1386 50.1779 55.0529C49.2636 55.9671 48.75 57.2071 48.75 58.5V63.375H43.875C42.5821 63.375 41.3421 63.8886 40.4279 64.8029C39.5136 65.7171 39 66.9571 39 68.25C39 69.5429 39.5136 70.7829 40.4279 71.6971C41.3421 72.6114 42.5821 73.125 43.875 73.125H48.75V78C48.75 79.2929 49.2636 80.5329 50.1779 81.4471C51.0921 82.3614 52.3321 82.875 53.625 82.875C54.9179 82.875 56.1579 82.3614 57.0721 81.4471C57.9864 80.5329 58.5 79.2929 58.5 78V73.125H63.375C64.6679 73.125 65.9079 72.6114 66.8221 71.6971C67.7364 70.7829 68.25 69.5429 68.25 68.25C68.25 66.9571 67.7364 65.7171 66.8221 64.8029C65.9079 63.8886 64.6679 63.375 63.375 63.375Z" fill="#E47300"/>
<path d="M102.375 63.375C105.067 63.375 107.25 61.1924 107.25 58.5C107.25 55.8076 105.067 53.625 102.375 53.625C99.6826 53.625 97.5 55.8076 97.5 58.5C97.5 61.1924 99.6826 63.375 102.375 63.375Z" fill="#E47300"/>
<path d="M102.375 82.875C105.067 82.875 107.25 80.6924 107.25 78C107.25 75.3076 105.067 73.125 102.375 73.125C99.6826 73.125 97.5 75.3076 97.5 78C97.5 80.6924 99.6826 82.875 102.375 82.875Z" fill="#E47300"/>
<path d="M112.125 73.125C114.817 73.125 117 70.9424 117 68.25C117 65.5576 114.817 63.375 112.125 63.375C109.433 63.375 107.25 65.5576 107.25 68.25C107.25 70.9424 109.433 73.125 112.125 73.125Z" fill="#E47300"/>
<path d="M92.625 73.125C95.3174 73.125 97.5 70.9424 97.5 68.25C97.5 65.5576 95.3174 63.375 92.625 63.375C89.9326 63.375 87.75 65.5576 87.75 68.25C87.75 70.9424 89.9326 73.125 92.625 73.125Z" fill="#E47300"/>
<path d="M218.625 48.5312L192.844 84.5312L191.625 113.875H169.406L169.969 84.7188L156.562 49.9375L180.469 46.9375L184.219 67.1875L196.125 46.9375L218.625 48.5312ZM270.516 76.0938C270.516 78.9375 270.188 81.6875 269.531 84.3438C268.875 86.9688 267.922 89.4375 266.672 91.75C265.453 94.0625 263.953 96.1875 262.172 98.125C260.422 100.031 258.438 101.672 256.219 103.047C254.031 104.422 251.641 105.5 249.047 106.281C246.453 107.031 243.703 107.406 240.797 107.406C237.984 107.406 235.297 107.047 232.734 106.328C230.203 105.609 227.828 104.609 225.609 103.328C223.391 102.016 221.375 100.453 219.562 98.6406C217.781 96.7969 216.25 94.7656 214.969 92.5469C213.719 90.2969 212.734 87.8906 212.016 85.3281C211.328 82.7656 210.984 80.0938 210.984 77.3125C210.984 74.5938 211.312 71.9375 211.969 69.3438C212.625 66.7188 213.562 64.25 214.781 61.9375C216.031 59.625 217.531 57.5 219.281 55.5625C221.031 53.625 222.984 51.9531 225.141 50.5469C227.328 49.1406 229.688 48.0469 232.219 47.2656C234.75 46.4844 237.422 46.0938 240.234 46.0938C244.766 46.0938 248.891 46.7969 252.609 48.2031C256.359 49.6094 259.547 51.625 262.172 54.25C264.828 56.8438 266.875 60 268.312 63.7188C269.781 67.4062 270.516 71.5312 270.516 76.0938ZM249.703 77.3125C249.703 75.9688 249.5 74.6719 249.094 73.4219C248.719 72.1406 248.156 71.0156 247.406 70.0469C246.656 69.0469 245.719 68.25 244.594 67.6562C243.5 67.0312 242.234 66.7188 240.797 66.7188C239.328 66.7188 238.016 66.9844 236.859 67.5156C235.703 68.0469 234.703 68.7812 233.859 69.7188C233.047 70.625 232.422 71.7031 231.984 72.9531C231.547 74.1719 231.328 75.4688 231.328 76.8438C231.328 78.1562 231.516 79.4688 231.891 80.7812C232.266 82.0938 232.828 83.2812 233.578 84.3438C234.328 85.4062 235.25 86.2656 236.344 86.9219C237.469 87.5781 238.766 87.9062 240.234 87.9062C241.703 87.9062 243.016 87.625 244.172 87.0625C245.359 86.4688 246.359 85.6875 247.172 84.7188C247.984 83.7188 248.609 82.5781 249.047 81.2969C249.484 80.0156 249.703 78.6875 249.703 77.3125ZM329.672 46C328.266 57 327.062 67.9531 326.062 78.8594C325.062 89.7344 324.109 100.688 323.203 111.719L303.984 113.125L304.828 105.906C304.203 106.625 303.469 107.25 302.625 107.781C301.812 108.312 300.938 108.75 300 109.094C299.062 109.406 298.094 109.641 297.094 109.797C296.094 109.922 295.141 109.969 294.234 109.938C292.109 109.906 290.109 109.5 288.234 108.719C286.359 107.906 284.641 106.844 283.078 105.531C281.516 104.188 280.109 102.641 278.859 100.891C277.609 99.1094 276.547 97.25 275.672 95.3125C274.828 93.3438 274.172 91.3438 273.703 89.3125C273.266 87.2812 273.047 85.3125 273.047 83.4062C273.047 80.5938 273.094 77.6875 273.188 74.6875C273.312 71.6562 273.516 68.625 273.797 65.5938C274.078 62.5625 274.438 59.5625 274.875 56.5938C275.344 53.625 275.922 50.7812 276.609 48.0625C280.422 48.25 284.25 48.4219 288.094 48.5781C291.938 48.7344 295.766 48.7812 299.578 48.7188C298.859 51.4375 298.141 54.1719 297.422 56.9219C296.734 59.6406 296.109 62.3906 295.547 65.1719C294.984 67.9219 294.531 70.6875 294.188 73.4688C293.844 76.25 293.672 79.0625 293.672 81.9062C293.672 82.5625 293.703 83.5 293.766 84.7188C293.828 85.9375 293.984 87.1406 294.234 88.3281C294.516 89.5156 294.922 90.5625 295.453 91.4688C296.016 92.3438 296.797 92.7812 297.797 92.7812C298.984 92.7812 300.047 92.2812 300.984 91.2812C301.922 90.25 302.75 88.875 303.469 87.1562C304.188 85.4375 304.797 83.4531 305.297 81.2031C305.828 78.9531 306.266 76.6094 306.609 74.1719C306.984 71.7031 307.281 69.2188 307.5 66.7188C307.719 64.2188 307.875 61.875 307.969 59.6875C308.094 57.4688 308.172 55.4844 308.203 53.7344C308.266 51.9844 308.297 50.625 308.297 49.6562C308.297 49.0312 308.281 48.4219 308.25 47.8281C308.219 47.2344 308.172 46.625 308.109 46C310.141 46.0625 312.156 46.1094 314.156 46.1406C316.156 46.1719 318.172 46.1875 320.203 46.1875C321.766 46.1875 323.328 46.1875 324.891 46.1875C326.484 46.1562 328.078 46.0938 329.672 46ZM387.422 66.8125C387.422 69.25 387.203 71.4688 386.766 73.4688C386.359 75.4375 385.703 77.25 384.797 78.9062C383.891 80.5625 382.719 82.0938 381.281 83.5C379.844 84.9062 378.109 86.25 376.078 87.5312L387.234 107.406L366.141 111.531L358.922 91.5625L353.109 91.75L352.266 111.25H332.109C332.266 104.125 332.406 97.0312 332.531 89.9688C332.688 82.9062 332.859 75.8125 333.047 68.6875C333.109 65.0938 333.172 61.5312 333.234 58C333.297 54.4688 333.422 50.9062 333.609 47.3125C335.797 46.5 337.953 45.8281 340.078 45.2969C342.203 44.7656 344.328 44.3594 346.453 44.0781C348.609 43.7656 350.781 43.5625 352.969 43.4688C355.188 43.3438 357.453 43.2812 359.766 43.2812C363.328 43.2812 366.766 43.7812 370.078 44.7812C373.422 45.75 376.375 47.2188 378.938 49.1875C381.5 51.1562 383.547 53.6094 385.078 56.5469C386.641 59.4844 387.422 62.9062 387.422 66.8125ZM366.422 68.3125C366.422 67 366.234 65.7969 365.859 64.7031C365.516 63.6094 364.984 62.6719 364.266 61.8906C363.578 61.0781 362.703 60.4531 361.641 60.0156C360.609 59.5469 359.391 59.3125 357.984 59.3125C357.359 59.3125 356.75 59.3594 356.156 59.4531C355.562 59.5156 354.984 59.625 354.422 59.7812L353.672 77.2188H354.797C356.141 77.2188 357.5 77.0469 358.875 76.7031C360.281 76.3594 361.531 75.8281 362.625 75.1094C363.75 74.3906 364.656 73.4688 365.344 72.3438C366.062 71.2188 366.422 69.875 366.422 68.3125ZM473.203 44.7812L469.828 108.344L445.266 110.594L432.141 76.5625L430.078 111.25H408.984L410.672 44.7812L434.109 43.6562L450.328 77.4062L451.078 45.5312L473.203 44.7812ZM529.359 74.125C529.359 76.8438 529.172 79.5625 528.797 82.2812C523.453 82.625 518.141 83.1875 512.859 83.9688C507.578 84.7188 502.297 85.4688 497.016 86.2188C497.828 88.4688 499.094 90.2656 500.812 91.6094C502.562 92.9531 504.641 93.625 507.047 93.625C508.297 93.625 509.656 93.3906 511.125 92.9219C512.625 92.4531 514.109 91.875 515.578 91.1875C517.047 90.4688 518.453 89.7031 519.797 88.8906C521.141 88.0781 522.297 87.3438 523.266 86.6875L521.016 107.969C519.797 108.906 518.469 109.703 517.031 110.359C515.625 111.016 514.156 111.547 512.625 111.953C511.094 112.359 509.547 112.656 507.984 112.844C506.422 113.031 504.891 113.125 503.391 113.125C500.297 113.125 497.469 112.703 494.906 111.859C492.344 111.016 490.016 109.844 487.922 108.344C485.859 106.812 484.047 105.016 482.484 102.953C480.922 100.891 479.625 98.6406 478.594 96.2031C477.562 93.7656 476.781 91.1875 476.25 88.4688C475.719 85.75 475.453 83 475.453 80.2188C475.453 77.3125 475.719 74.4062 476.25 71.5C476.781 68.5938 477.578 65.7969 478.641 63.1094C479.734 60.4219 481.094 57.9375 482.719 55.6562C484.375 53.3438 486.297 51.3281 488.484 49.6094C490.672 47.8906 493.141 46.5469 495.891 45.5781C498.672 44.6094 501.734 44.125 505.078 44.125C507.859 44.125 510.391 44.5156 512.672 45.2969C514.984 46.0469 517.031 47.1094 518.812 48.4844C520.625 49.8281 522.188 51.4375 523.5 53.3125C524.844 55.1875 525.938 57.25 526.781 59.5C527.656 61.7188 528.297 64.0781 528.703 66.5781C529.141 69.0469 529.359 71.5625 529.359 74.125ZM510.609 71.6875C510.609 70.8125 510.516 69.9219 510.328 69.0156C510.141 68.0781 509.828 67.2344 509.391 66.4844C508.984 65.7344 508.438 65.125 507.75 64.6562C507.062 64.1562 506.203 63.9062 505.172 63.9062C503.922 63.9062 502.812 64.25 501.844 64.9375C500.906 65.5938 500.094 66.4375 499.406 67.4688C498.719 68.4688 498.156 69.5625 497.719 70.75C497.281 71.9375 496.953 73.0312 496.734 74.0312L510.609 72.7188V71.6875ZM586.359 48.1562L568.078 78.0625L584.578 104.781L564.984 110.875L555.609 92.6875L545.672 111.906L525.422 104.594L542.672 77.4062L526.922 50.6875L548.391 45.5312L556.078 62.5L564.234 45.5312L586.359 48.1562ZM636.375 45.9062L635.906 65.7812L621.938 66.3438L620.25 109.844L600.469 110.875L598.688 67.375L584.719 68.125L585.281 46L636.375 45.9062ZM714.375 102.438C712.906 104.281 711.094 105.891 708.938 107.266C706.781 108.641 704.469 109.781 702 110.688C699.531 111.594 697 112.266 694.406 112.703C691.812 113.172 689.344 113.406 687 113.406C682.469 113.406 678.297 112.594 674.484 110.969C670.672 109.344 667.375 107.109 664.594 104.266C661.844 101.391 659.688 98.0156 658.125 94.1406C656.562 90.2656 655.781 86.0938 655.781 81.625C655.781 78.2188 656.172 74.8906 656.953 71.6406C657.734 68.3594 658.844 65.2812 660.281 62.4062C661.75 59.5 663.531 56.8438 665.625 54.4375C667.719 52 670.094 49.9062 672.75 48.1562C675.406 46.4062 678.312 45.0469 681.469 44.0781C684.625 43.1094 688 42.625 691.594 42.625C692.938 42.625 694.375 42.6875 695.906 42.8125C697.438 42.9062 698.953 43.0938 700.453 43.375C701.984 43.625 703.469 43.9844 704.906 44.4531C706.344 44.9219 707.656 45.5 708.844 46.1875L707.531 64.0938C705.781 63.4375 703.969 63 702.094 62.7812C700.25 62.5312 698.438 62.4062 696.656 62.4062C694.156 62.4062 691.812 62.7969 689.625 63.5781C687.469 64.3281 685.578 65.4219 683.953 66.8594C682.359 68.2969 681.094 70.0469 680.156 72.1094C679.219 74.1719 678.75 76.5 678.75 79.0938C678.75 80.7188 678.969 82.2969 679.406 83.8281C679.844 85.3281 680.5 86.6719 681.375 87.8594C682.281 89.0156 683.391 89.9531 684.703 90.6719C686.047 91.3906 687.594 91.75 689.344 91.75C690.531 91.75 691.75 91.5938 693 91.2812C694.281 90.9688 695.375 90.4375 696.281 89.6875L696.469 86.0312L685.219 85.8438L685.781 71.7812C690.438 71.625 695.094 71.5 699.75 71.4062C704.406 71.2812 709.094 71.125 713.812 70.9375L714.375 102.438ZM777.094 107.969L753.844 110.969L751.031 100.375H740.344L738 110.969L714.094 108.625L732.75 46.1875L758.812 44.875L777.094 107.969ZM749.344 86.0312L745.781 69.7188L742.312 86.0312H749.344ZM860.016 80.2188C860.016 84.6875 859.875 89.1406 859.594 93.5781C859.312 98.0156 858.984 102.469 858.609 106.938L834.516 108.062C835.234 102.625 835.875 97.1875 836.438 91.75C837.031 86.2812 837.328 80.8125 837.328 75.3438C837.328 75 837.312 74.4062 837.281 73.5625C837.25 72.6875 837.188 71.7031 837.094 70.6094C837.031 69.5156 836.922 68.3906 836.766 67.2344C836.641 66.0469 836.453 64.9688 836.203 64C835.984 63 835.703 62.1875 835.359 61.5625C835.016 60.9375 834.609 60.625 834.141 60.625C833.047 60.625 832.188 61.0469 831.562 61.8906C830.938 62.7031 830.469 63.6875 830.156 64.8438C829.875 66 829.703 67.1875 829.641 68.4062C829.578 69.5938 829.547 70.5625 829.547 71.3125C829.547 72.625 829.578 73.9375 829.641 75.25C829.703 76.5625 829.734 77.9062 829.734 79.2812C829.734 84.125 829.609 88.9531 829.359 93.7656C829.141 98.5781 828.859 103.406 828.516 108.25L806.297 109.094C807.016 103.656 807.641 98.2344 808.172 92.8281C808.734 87.3906 809.016 81.9375 809.016 76.4688C809.016 76.125 809 75.5 808.969 74.5938C808.938 73.6875 808.875 72.6719 808.781 71.5469C808.719 70.4219 808.609 69.25 808.453 68.0312C808.297 66.8125 808.094 65.7031 807.844 64.7031C807.625 63.6719 807.344 62.8281 807 62.1719C806.656 61.5156 806.234 61.1875 805.734 61.1875C804.953 61.1875 804.297 61.5 803.766 62.125C803.234 62.7188 802.797 63.5 802.453 64.4688C802.141 65.4375 801.891 66.5156 801.703 67.7031C801.547 68.8594 801.422 70 801.328 71.125C801.266 72.25 801.219 73.2969 801.188 74.2656C801.188 75.2031 801.172 75.9062 801.141 76.375L800.109 110.594H776.484C776.984 105.312 777.484 100.016 777.984 94.7031C778.516 89.3906 778.969 84.0938 779.344 78.8125C779.75 73.5 780.078 68.1875 780.328 62.875C780.578 57.5625 780.703 52.25 780.703 46.9375L803.016 46L802.922 51.4375C803.609 50.5625 804.391 49.6875 805.266 48.8125C806.141 47.9062 807.062 47.1094 808.031 46.4219C809.031 45.7031 810.078 45.125 811.172 44.6875C812.297 44.25 813.453 44.0312 814.641 44.0312C816.172 44.0312 817.547 44.1562 818.766 44.4062C819.984 44.625 821.078 45.0156 822.047 45.5781C823.047 46.1406 823.922 46.9219 824.672 47.9219C825.422 48.8906 826.078 50.125 826.641 51.625C827.641 50.5312 828.641 49.5156 829.641 48.5781C830.672 47.6406 831.75 46.8438 832.875 46.1875C834 45.5 835.219 44.9688 836.531 44.5938C837.844 44.2188 839.297 44.0312 840.891 44.0312C843.922 44.0312 846.5 44.625 848.625 45.8125C850.75 46.9688 852.516 48.5156 853.922 50.4531C855.359 52.3906 856.469 54.6094 857.25 57.1094C858.062 59.6094 858.672 62.2031 859.078 64.8906C859.484 67.5781 859.734 70.25 859.828 72.9062C859.953 75.5625 860.016 78 860.016 80.2188ZM916.641 74.125C916.641 76.8438 916.453 79.5625 916.078 82.2812C910.734 82.625 905.422 83.1875 900.141 83.9688C894.859 84.7188 889.578 85.4688 884.297 86.2188C885.109 88.4688 886.375 90.2656 888.094 91.6094C889.844 92.9531 891.922 93.625 894.328 93.625C895.578 93.625 896.938 93.3906 898.406 92.9219C899.906 92.4531 901.391 91.875 902.859 91.1875C904.328 90.4688 905.734 89.7031 907.078 88.8906C908.422 88.0781 909.578 87.3438 910.547 86.6875L908.297 107.969C907.078 108.906 905.75 109.703 904.312 110.359C902.906 111.016 901.438 111.547 899.906 111.953C898.375 112.359 896.828 112.656 895.266 112.844C893.703 113.031 892.172 113.125 890.672 113.125C887.578 113.125 884.75 112.703 882.188 111.859C879.625 111.016 877.297 109.844 875.203 108.344C873.141 106.812 871.328 105.016 869.766 102.953C868.203 100.891 866.906 98.6406 865.875 96.2031C864.844 93.7656 864.062 91.1875 863.531 88.4688C863 85.75 862.734 83 862.734 80.2188C862.734 77.3125 863 74.4062 863.531 71.5C864.062 68.5938 864.859 65.7969 865.922 63.1094C867.016 60.4219 868.375 57.9375 870 55.6562C871.656 53.3438 873.578 51.3281 875.766 49.6094C877.953 47.8906 880.422 46.5469 883.172 45.5781C885.953 44.6094 889.016 44.125 892.359 44.125C895.141 44.125 897.672 44.5156 899.953 45.2969C902.266 46.0469 904.312 47.1094 906.094 48.4844C907.906 49.8281 909.469 51.4375 910.781 53.3125C912.125 55.1875 913.219 57.25 914.062 59.5C914.938 61.7188 915.578 64.0781 915.984 66.5781C916.422 69.0469 916.641 71.5625 916.641 74.125ZM897.891 71.6875C897.891 70.8125 897.797 69.9219 897.609 69.0156C897.422 68.0781 897.109 67.2344 896.672 66.4844C896.266 65.7344 895.719 65.125 895.031 64.6562C894.344 64.1562 893.484 63.9062 892.453 63.9062C891.203 63.9062 890.094 64.25 889.125 64.9375C888.188 65.5938 887.375 66.4375 886.688 67.4688C886 68.4688 885.438 69.5625 885 70.75C884.562 71.9375 884.234 73.0312 884.016 74.0312L897.891 72.7188V71.6875ZM942.703 42.3438L938.859 91.6562H921.516L919.734 42.3438H942.703ZM939.609 106.094C939.609 107.469 939.344 108.75 938.812 109.938C938.281 111.125 937.562 112.156 936.656 113.031C935.781 113.938 934.75 114.641 933.562 115.141C932.375 115.672 931.109 115.938 929.766 115.938C928.391 115.938 927.109 115.672 925.922 115.141C924.734 114.641 923.688 113.938 922.781 113.031C921.906 112.156 921.203 111.125 920.672 109.938C920.172 108.75 919.922 107.469 919.922 106.094C919.922 104.75 920.172 103.469 920.672 102.25C921.203 101.031 921.906 99.9844 922.781 99.1094C923.688 98.2031 924.734 97.4844 925.922 96.9531C927.109 96.4219 928.391 96.1562 929.766 96.1562C931.109 96.1562 932.375 96.4219 933.562 96.9531C934.75 97.4844 935.781 98.2031 936.656 99.1094C937.562 99.9844 938.281 101.031 938.812 102.25C939.344 103.469 939.609 104.75 939.609 106.094Z" fill="#E47300"/>
</svg>
