<svg viewBox="0 0 156 156" xmlns="http://www.w3.org/2000/svg">
<path d="M145.865 101.575L138.552 57.7639C137.245 49.789 133.141 42.5401 126.976 37.3154C120.81 32.0907 112.986 29.2315 104.905 29.25H51.0949C43.0152 29.2339 35.1936 32.0941 29.0303 37.3185C22.8671 42.543 18.7646 49.7907 17.4574 57.7639L10.1449 101.575C9.31596 106.542 10.2465 111.642 12.776 115.996C15.3055 120.35 19.2753 123.684 24.0004 125.424C28.7256 127.164 33.9097 127.199 38.6586 125.525C43.4074 123.851 47.423 120.572 50.0126 116.254L58.3294 102.375H97.6706L105.997 116.254C108.587 120.572 112.602 123.851 117.351 125.525C122.1 127.199 127.284 127.164 132.009 125.424C136.734 123.684 140.704 120.35 143.234 115.996C145.763 111.642 146.694 106.542 145.865 101.575ZM133.594 112.788C132.375 114.227 130.829 115.355 129.086 116.078C127.344 116.801 125.453 117.098 123.573 116.945C121.692 116.791 119.875 116.192 118.273 115.196C116.67 114.2 115.328 112.836 114.358 111.218L104.608 94.9747C104.172 94.2557 103.558 93.6614 102.825 93.2497C102.093 92.838 101.266 92.6228 100.425 92.625H55.575C54.7338 92.6252 53.9069 92.843 53.1748 93.2573C52.4428 93.6716 51.8303 94.2683 51.3971 94.9894L41.6471 111.233C40.2252 113.603 38.0206 115.403 35.4135 116.322C32.8064 117.241 29.9603 117.222 27.3662 116.267C24.7722 115.311 22.5927 113.481 21.2038 111.091C19.8149 108.701 19.3037 105.901 19.7584 103.174L27.0709 59.3677C28.005 53.6732 30.9351 48.497 35.3367 44.7653C39.7383 41.0335 45.3242 38.9899 51.0949 39H104.905C110.679 38.9852 116.27 41.0268 120.675 44.7589C125.081 48.4911 128.014 53.6699 128.949 59.3677L136.261 103.174C136.542 104.878 136.447 106.623 135.983 108.286C135.519 109.949 134.697 111.491 133.575 112.803L133.594 112.788Z" fill="current"/>
<path d="M63.375 63.375H58.5V58.5C58.5 57.2071 57.9864 55.9671 57.0721 55.0529C56.1579 54.1386 54.9179 53.625 53.625 53.625C52.3321 53.625 51.0921 54.1386 50.1779 55.0529C49.2636 55.9671 48.75 57.2071 48.75 58.5V63.375H43.875C42.5821 63.375 41.3421 63.8886 40.4279 64.8029C39.5136 65.7171 39 66.9571 39 68.25C39 69.5429 39.5136 70.7829 40.4279 71.6971C41.3421 72.6114 42.5821 73.125 43.875 73.125H48.75V78C48.75 79.2929 49.2636 80.5329 50.1779 81.4471C51.0921 82.3614 52.3321 82.875 53.625 82.875C54.9179 82.875 56.1579 82.3614 57.0721 81.4471C57.9864 80.5329 58.5 79.2929 58.5 78V73.125H63.375C64.6679 73.125 65.9079 72.6114 66.8221 71.6971C67.7364 70.7829 68.25 69.5429 68.25 68.25C68.25 66.9571 67.7364 65.7171 66.8221 64.8029C65.9079 63.8886 64.6679 63.375 63.375 63.375Z" fill="current"/>
<path d="M102.375 63.375C105.067 63.375 107.25 61.1924 107.25 58.5C107.25 55.8076 105.067 53.625 102.375 53.625C99.6826 53.625 97.5 55.8076 97.5 58.5C97.5 61.1924 99.6826 63.375 102.375 63.375Z" fill="current"/>
<path d="M102.375 82.875C105.067 82.875 107.25 80.6924 107.25 78C107.25 75.3076 105.067 73.125 102.375 73.125C99.6826 73.125 97.5 75.3076 97.5 78C97.5 80.6924 99.6826 82.875 102.375 82.875Z" fill="current"/>
<path d="M112.125 73.125C114.817 73.125 117 70.9424 117 68.25C117 65.5576 114.817 63.375 112.125 63.375C109.433 63.375 107.25 65.5576 107.25 68.25C107.25 70.9424 109.433 73.125 112.125 73.125Z" fill="current"/>
<path d="M92.625 73.125C95.3174 73.125 97.5 70.9424 97.5 68.25C97.5 65.5576 95.3174 63.375 92.625 63.375C89.9326 63.375 87.75 65.5576 87.75 68.25C87.75 70.9424 89.9326 73.125 92.625 73.125Z" fill="current"/>
</svg>
